<svg xmlns="http://www.w3.org/2000/svg" width="192" height="34" viewBox="0 0 192 34" fill="none">
  <path fill-rule="evenodd" clip-rule="evenodd" d="M60.051 5.56565C69.9511 2.16789 76.049 0.921493 86.434 0.171798C91.1837 -0.170832 105.693 0.0319874 109.141 0.489461C120.108 1.94462 128.63 4.11239 136.366 7.4148C140.061 8.99218 143.38 10.6554 143.38 10.9298C143.38 11.4291 138.003 10.4521 129.909 8.48216C118.271 5.65006 109.627 4.47594 98.917 4.27336C88.4148 4.07482 80.2873 4.59388 71.811 6.00505C66.1832 6.94187 63.3962 7.62452 51.3626 11.0135C49.3556 11.5787 47.5835 11.6723 47.5133 11.2165C47.4037 10.5044 52.9695 7.99592 60.051 5.56565Z" fill="url(#paint0_linear_2615_2872)"/>
  <path d="M171.834 19.6589C172.182 19.2173 172.903 18.6581 173.437 18.4158C173.97 18.1735 174.915 17.9728 175.536 17.97L176.665 17.9648V22.0069L175.179 22.0078C173.433 22.0088 172.395 22.5257 171.743 23.7203C171.383 24.3806 171.303 25.2218 171.238 29.0806L171.16 33.6577H167.392V18.2025H171.197L171.202 20.4614L171.834 19.6589Z" fill="white"/>
  <path d="M164.539 13.6849C164.539 14.8667 163.581 15.8248 162.399 15.8248C161.217 15.8248 160.259 14.8667 160.259 13.6849C160.259 12.503 161.217 11.5449 162.399 11.5449C163.581 11.5449 164.539 12.503 164.539 13.6849Z" fill="white"/>
  <path fill-rule="evenodd" clip-rule="evenodd" d="M155.552 32.5415C155.55 32.5486 155.548 32.5555 155.547 32.5621C155.541 32.5878 155.535 32.6096 155.531 32.6268L155.547 32.5621L155.552 32.5415Z" fill="white"/>
  <path fill-rule="evenodd" clip-rule="evenodd" d="M143.615 21.2936V11.7827H140.286V33.42H143.615V28.6719C143.615 24.2577 143.644 23.9334 144.031 24.058C144.369 24.1666 144.383 24.1459 144.104 23.9481C143.879 23.789 143.611 23.784 143.331 23.9341C143.046 24.0865 142.902 24.081 142.902 23.9174C142.902 23.7821 142.474 23.6713 141.951 23.6713C141.158 23.6713 141 23.5922 141 23.1958C141 22.9342 140.893 22.7202 140.762 22.7202C140.631 22.7202 140.524 22.2923 140.524 21.7692C140.524 21.2461 140.631 20.8181 140.762 20.8181C140.893 20.8181 141 20.3901 141 19.867C141 19.0745 141.079 18.9159 141.475 18.9159C141.792 18.9159 141.951 18.7573 141.951 18.4404C141.951 18.1788 142.058 17.9648 142.189 17.9648C142.319 17.9648 142.426 18.5445 142.426 19.2531C142.426 20.6493 142.603 21.3592 142.905 21.1731C143.01 21.1082 143.036 21.2815 142.964 21.558C142.851 21.9898 142.907 22.0371 143.364 21.8923C143.757 21.7675 143.986 21.8529 144.244 22.2219C144.637 22.783 146.108 22.9259 146.312 22.423C146.39 22.2304 146.502 22.2095 146.629 22.3636C146.737 22.4944 148.034 22.6159 149.512 22.6335C152.198 22.6656 152.82 22.797 152.175 23.1958C151.646 23.5225 152.057 23.7351 152.871 23.5562C153.543 23.4086 153.914 22.958 153.364 22.958C153.233 22.958 153.126 22.8543 153.126 22.7276C153.126 22.6011 153.263 22.5498 153.429 22.6137C153.66 22.7022 153.749 22.1717 153.8 20.407C153.837 19.1292 153.968 18.048 154.091 18.0045C154.214 17.9608 154.315 17.7201 154.315 17.4695C154.315 17.2189 154.422 17.0137 154.553 17.0137C154.683 17.0137 154.79 16.5857 154.79 16.0626C154.79 15.2854 154.873 15.1115 155.244 15.1115C155.628 15.1115 155.71 15.3205 155.779 16.4787C155.897 18.4572 155.794 31.5494 155.657 32.1122C155.639 32.1855 155.621 32.2578 155.605 32.3248L155.589 32.3889C155.575 32.4464 155.562 32.4983 155.552 32.5415L155.547 32.5621L155.531 32.6268L155.522 32.6641C155.512 32.7062 155.343 32.5802 155.147 32.384C154.951 32.1878 154.79 31.6452 154.79 31.178C154.79 30.711 154.683 30.3289 154.553 30.3289C154.422 30.3289 154.315 29.734 154.315 29.0072C154.315 28.1866 154.225 27.741 154.077 27.8323C153.942 27.9158 153.839 27.7158 153.839 27.3708C153.839 27.0363 153.946 26.7624 154.077 26.7624C154.208 26.7624 154.313 26.4147 154.311 25.9896C154.309 25.4033 154.252 25.3029 154.077 25.5735C153.908 25.8348 153.846 25.6596 153.843 24.9196L153.839 23.9091L150.57 23.8908C148.772 23.8808 147.113 23.8368 146.885 23.7931C146.656 23.7493 146.468 23.8109 146.468 23.93C146.468 24.0511 148.047 24.1469 150.035 24.1469H153.602V33.42H156.93V11.7827H153.602V21.2936H143.615ZM153.944 16.241C154 15.8158 154.052 15.3881 154.061 15.2899C154.07 15.1917 154.131 15.1115 154.196 15.1115C154.261 15.1115 154.315 15.5395 154.315 16.0626C154.315 16.5857 154.209 17.0137 154.079 17.0137C153.949 17.0137 153.889 16.6661 153.944 16.241ZM142.189 16.8948C142.058 16.814 141.951 16.5938 141.951 16.4053C141.951 16.2167 142.058 16.0626 142.189 16.0626C142.319 16.0626 142.426 16.283 142.426 16.5522C142.426 16.8214 142.319 16.9757 142.189 16.8948ZM141.237 29.3779C141.095 29.3779 141 28.4268 141 27.0001V24.6224H141.713C142.268 24.6224 142.426 24.728 142.426 25.098C142.426 25.3595 142.319 25.5735 142.189 25.5735C142.056 25.5735 141.951 26.2076 141.951 27.0001C141.951 27.7926 142.056 28.4268 142.189 28.4268C142.319 28.4268 142.426 28.6408 142.426 28.9023C142.426 29.1639 142.319 29.3779 142.189 29.3779C142.056 29.3779 141.951 30.012 141.951 30.8045C141.951 32.0725 141.898 32.2311 141.475 32.2311C141.214 32.2311 141 32.1241 141 31.9933C141 31.8626 141.107 31.7556 141.237 31.7556C141.368 31.7556 141.475 31.2206 141.475 30.5667C141.475 29.9128 141.368 29.3779 141.237 29.3779ZM154.479 31.6961C154.419 31.9249 154.37 31.7377 154.37 31.28C154.37 30.8223 154.419 30.6352 154.479 30.8639C154.539 31.0927 154.539 31.4674 154.479 31.6961Z" fill="white"/>
  <path fill-rule="evenodd" clip-rule="evenodd" d="M140.049 33.6578H143.853V24.3846H153.364V33.6578H157.168V11.545H153.364V21.0558H143.853V11.545H140.049V33.6578ZM156.93 33.42H153.602V24.1469H150.035C148.047 24.1469 146.468 24.0511 146.468 23.93C146.468 23.8109 146.656 23.7493 146.885 23.7931C147.113 23.8368 148.772 23.8808 150.57 23.8908L153.839 23.9091L153.843 24.9196C153.846 25.6596 153.908 25.8348 154.077 25.5735C154.252 25.3029 154.309 25.4033 154.311 25.9896C154.313 26.4147 154.208 26.7624 154.077 26.7624C153.946 26.7624 153.839 27.0363 153.839 27.3708C153.839 27.7158 153.942 27.9158 154.077 27.8323C154.225 27.741 154.315 28.1866 154.315 29.0072C154.315 29.734 154.422 30.3289 154.553 30.3289C154.683 30.3289 154.79 30.711 154.79 31.178C154.79 31.6452 154.951 32.1878 155.147 32.384C155.343 32.5802 155.512 32.7062 155.522 32.6641L155.531 32.6268L155.547 32.5621L155.552 32.5415C155.566 32.4828 155.584 32.4079 155.605 32.3248L155.589 32.3889C155.575 32.4464 155.562 32.4983 155.552 32.5415L155.547 32.5621L155.531 32.6268L155.522 32.6641C155.512 32.7062 155.343 32.5802 155.147 32.384C154.951 32.1878 154.79 31.6452 154.79 31.178C154.79 30.711 154.683 30.3289 154.553 30.3289C154.422 30.3289 154.315 29.734 154.315 29.0072C154.315 28.1866 154.225 27.741 154.077 27.8323C153.942 27.9158 153.839 27.7158 153.839 27.3708C153.839 27.0363 153.946 26.7624 154.077 26.7624C154.208 26.7624 154.313 26.4147 154.311 25.9896C154.309 25.4033 154.252 25.3029 154.077 25.5735C153.908 25.8348 153.846 25.6596 153.843 24.9196L153.839 23.9091L150.57 23.8908C148.772 23.8808 147.113 23.8368 146.885 23.7931C146.656 23.7493 146.468 23.8109 146.468 23.93C146.468 24.0511 148.047 24.1469 150.035 24.1469H153.602V33.42H156.93ZM153.944 16.241C154 15.8158 154.052 15.3881 154.061 15.2899C154.07 15.1917 154.131 15.1115 154.196 15.1115C154.261 15.1115 154.315 15.5395 154.315 16.0626C154.315 16.5857 154.209 17.0137 154.079 17.0137C153.949 17.0137 153.889 16.6661 153.944 16.241ZM142.189 16.8948C142.058 16.814 141.951 16.5938 141.951 16.4053C141.951 16.2167 142.058 16.0626 142.189 16.0626C142.319 16.0626 142.426 16.283 142.426 16.5522C142.426 16.8214 142.319 16.9757 142.189 16.8948ZM150.094 23.5039C150.588 23.58 150.986 23.542 150.986 23.4186C150.986 23.2961 150.54 23.1958 149.995 23.1958C148.822 23.1958 148.86 23.3132 150.094 23.5039ZM145.444 23.9367C145.064 23.921 144.839 23.8064 144.923 23.6713C145.004 23.5406 145.016 23.4336 144.951 23.4336C144.886 23.4336 144.766 23.5413 144.684 23.673C144.498 23.9747 145.113 24.223 145.682 24.0758C145.957 24.0042 145.872 23.9543 145.444 23.9367ZM141.237 29.3779C141.095 29.3779 141 28.4268 141 27.0001V24.6224H141.713C142.268 24.6224 142.426 24.728 142.426 25.098C142.426 25.3595 142.319 25.5735 142.189 25.5735C142.056 25.5735 141.951 26.2076 141.951 27.0001C141.951 27.7926 142.056 28.4268 142.189 28.4268C142.319 28.4268 142.426 28.6408 142.426 28.9023C142.426 29.1639 142.319 29.3779 142.189 29.3779C142.056 29.3779 141.951 30.012 141.951 30.8045C141.951 32.0725 141.898 32.2311 141.475 32.2311C141.214 32.2311 141 32.1241 141 31.9933C141 31.8626 141.107 31.7556 141.237 31.7556C141.368 31.7556 141.475 31.2206 141.475 30.5667C141.475 29.9128 141.368 29.3779 141.237 29.3779ZM154.479 31.6961C154.419 31.9249 154.37 31.7377 154.37 31.28C154.37 30.8223 154.419 30.6352 154.479 30.8639C154.539 31.0927 154.539 31.4674 154.479 31.6961Z" fill="white"/>
  <path d="M144.923 23.6713C144.839 23.8064 145.064 23.921 145.444 23.9367C145.872 23.9543 145.957 24.0042 145.682 24.0758C145.113 24.223 144.498 23.9747 144.684 23.673C144.766 23.5413 144.886 23.4336 144.951 23.4336C145.016 23.4336 145.004 23.5406 144.923 23.6713Z" fill="white"/>
  <path d="M150.986 23.4186C150.986 23.542 150.588 23.58 150.094 23.5039C148.86 23.3132 148.822 23.1958 149.995 23.1958C150.54 23.1958 150.986 23.2961 150.986 23.4186Z" fill="white"/>
  <path d="M141.951 16.4053C141.951 16.5938 142.058 16.814 142.189 16.8948C142.319 16.9757 142.426 16.8214 142.426 16.5522C142.426 16.283 142.319 16.0626 142.189 16.0626C142.058 16.0626 141.951 16.2167 141.951 16.4053Z" fill="white"/>
  <path fill-rule="evenodd" clip-rule="evenodd" d="M188.157 19.1021C190.271 20.2821 191.407 22.5576 191.407 25.613C191.407 26.7464 191.376 26.8094 190.872 26.6744C190.578 26.5957 190.15 26.5296 189.921 26.5279C189.665 26.5258 189.505 26.3422 189.505 26.0491C189.505 25.7875 189.612 25.5735 189.743 25.5735C189.874 25.5735 189.981 25.0283 189.981 24.3618C189.981 23.0993 189.407 21.7692 188.862 21.7692C188.446 21.7692 187.603 21.0176 187.603 20.6464C187.603 20.2177 187.192 20.2688 186.935 20.7294C186.767 21.0283 186.617 21.0599 186.274 20.868C185.861 20.6369 185.874 20.5996 186.46 20.3325C186.844 20.1575 187.04 19.916 186.962 19.7136C186.863 19.4554 186.74 19.4918 186.405 19.8777C186.11 20.2182 185.517 20.4383 184.514 20.5801C183.711 20.6935 182.917 20.8996 182.75 21.038C182.584 21.1764 182.389 21.2313 182.318 21.1602C182.247 21.0891 181.948 21.4203 181.653 21.8966C181.266 22.5229 181.065 22.6763 180.926 22.4509C180.82 22.2797 180.647 22.2314 180.542 22.3436C180.437 22.4558 180.485 22.5952 180.648 22.6537C180.853 22.7269 180.899 23.0479 180.796 23.6911L180.647 24.6224H189.03V26.5246H188.079C187.555 26.5246 187.127 26.4176 187.127 26.2868C187.127 26.156 186.78 26.0567 186.355 26.0657C185.707 26.0797 185.659 26.1156 186.057 26.2868C186.38 26.4254 185.941 26.4965 184.69 26.508C183.677 26.517 182.848 26.4404 182.848 26.3377C182.848 26.235 182.641 26.1511 182.389 26.1511C182.138 26.1511 181.993 26.2507 182.068 26.3724C182.149 26.5022 181.942 26.5279 181.57 26.4345C179.484 25.9109 181.545 30.3377 183.722 31.0563C185.193 31.5416 187.534 31.0843 189.505 29.9266C189.571 29.8884 189.88 30.2324 190.192 30.6913C190.731 31.4824 190.74 31.549 190.354 31.9753C189.67 32.7304 187.64 33.454 185.816 33.5919C184.457 33.6946 183.752 33.615 182.461 33.2126C180.832 32.7052 180.393 32.4268 179.299 31.2087C178.824 30.6794 178.792 30.5667 179.121 30.5667C179.34 30.5667 179.519 30.7272 179.519 30.9234C179.519 31.1195 179.599 31.2601 179.697 31.2356C179.795 31.2113 180.604 31.5432 181.496 31.9734C183.179 32.7863 183.922 32.8995 182.482 32.1239C182.029 31.8802 181.659 31.5071 181.659 31.295C181.659 31.0829 181.445 30.7553 181.183 30.5667C180.922 30.3782 180.708 30.0838 180.708 29.9124C180.708 29.7409 180.547 29.5391 180.351 29.4639C179.903 29.292 179.858 27.242 180.292 26.775C180.529 26.5189 180.529 26.4885 180.292 26.6226C180.109 26.7255 179.994 26.6473 179.994 26.4197C179.994 26.216 180.101 26.0491 180.232 26.0491C180.363 26.0491 180.47 25.8351 180.47 25.5735C180.47 25.1893 180.311 25.098 179.645 25.098C179.01 25.098 178.852 25.1798 178.957 25.4546C179.044 25.6805 178.954 25.8113 178.712 25.8113C178.502 25.8113 178.33 25.9782 178.33 26.182C178.33 26.3857 178.223 26.4866 178.092 26.4057C177.961 26.3249 177.854 26.3722 177.854 26.5106C177.854 26.649 177.968 26.7624 178.106 26.7624C178.245 26.7624 178.292 26.8694 178.211 27.0001C178.13 27.1309 177.957 27.2379 177.826 27.2379C177.696 27.2379 177.65 27.1383 177.725 27.0165C177.801 26.8948 177.753 26.7281 177.62 26.6459C177.148 26.3539 177.578 23.0569 178.172 22.414C178.324 22.2492 178.482 21.9641 178.522 21.7801C178.782 20.6026 180.71 19.0614 182.61 18.5133C184.295 18.0269 186.685 18.2806 188.157 19.1021ZM179.281 22.2447C179.15 22.2447 179.043 22.1377 179.043 22.0069C179.043 21.8762 179.15 21.7692 179.281 21.7692C179.412 21.7692 179.519 21.8762 179.519 22.0069C179.519 22.1377 179.412 22.2447 179.281 22.2447ZM180.389 28.2484C180.324 28.412 180.27 28.2782 180.27 27.9512C180.27 27.6243 180.324 27.4907 180.389 27.654C180.456 27.8176 180.456 28.0851 180.389 28.2484Z" fill="white"/>
  <path fill-rule="evenodd" clip-rule="evenodd" d="M182.598 18.2734C180.448 18.8836 178.708 20.397 177.773 22.4703C177.073 24.0242 177.102 27.3114 177.831 29.1926C178.474 30.8509 180.061 32.5516 181.606 33.239C184.069 34.3349 187.634 34.0127 190.053 32.4756L191.195 31.7499L190.429 30.6827C190.007 30.0959 189.637 29.6156 189.606 29.6156C189.575 29.6156 189.009 29.8957 188.349 30.2381C185.402 31.7672 182.537 31.0744 181.392 28.5554C181.354 28.47 181.316 28.3889 181.28 28.312L181.279 28.3092L181.278 28.3073C181.05 27.8157 180.901 27.4926 180.997 27.2828C181.183 26.8806 182.274 26.8953 185.457 26.9384L185.459 26.9384L185.461 26.9384C185.724 26.942 186.002 26.9458 186.295 26.9495L191.645 27.0175V25.5065C191.645 21.2116 189.175 18.3234 185.288 18.0711C184.36 18.0109 183.222 18.0965 182.598 18.2734ZM191.407 25.613C191.407 22.5576 190.271 20.2821 188.157 19.1021C186.685 18.2806 184.295 18.0269 182.61 18.5133C180.71 19.0614 178.782 20.6026 178.522 21.7801C178.482 21.9641 178.324 22.2492 178.172 22.414C177.578 23.0569 177.148 26.3539 177.62 26.6459C177.753 26.7281 177.801 26.8948 177.725 27.0165C177.65 27.1383 177.696 27.2379 177.826 27.2379C177.957 27.2379 178.13 27.1309 178.211 27.0001C178.292 26.8694 178.245 26.7624 178.106 26.7624C177.968 26.7624 177.854 26.649 177.854 26.5106C177.854 26.3722 177.961 26.3249 178.092 26.4057C178.223 26.4866 178.33 26.3857 178.33 26.182C178.33 25.9782 178.502 25.8113 178.712 25.8113C178.954 25.8113 179.044 25.6805 178.957 25.4546C178.852 25.1798 179.01 25.098 179.645 25.098C180.311 25.098 180.47 25.1893 180.47 25.5735C180.47 25.8351 180.363 26.0491 180.232 26.0491C180.101 26.0491 179.994 26.216 179.994 26.4197C179.994 26.6473 180.109 26.7255 180.292 26.6226C180.529 26.4885 180.529 26.5189 180.292 26.775C179.858 27.242 179.903 29.292 180.351 29.4639C180.547 29.5391 180.708 29.7409 180.708 29.9124C180.708 30.0838 180.922 30.3782 181.183 30.5667C181.445 30.7553 181.659 31.0829 181.659 31.295C181.659 31.5071 182.029 31.8802 182.482 32.1239C183.922 32.8995 183.179 32.7863 181.496 31.9734C180.604 31.5432 179.795 31.2113 179.697 31.2356C179.599 31.2601 179.519 31.1195 179.519 30.9234C179.519 30.7272 179.34 30.5667 179.121 30.5667C178.792 30.5667 178.824 30.6794 179.299 31.2087C180.393 32.4268 180.832 32.7052 182.461 33.2126C183.752 33.615 184.457 33.6946 185.816 33.5919C187.64 33.454 189.67 32.7304 190.354 31.9753C190.74 31.549 190.731 31.4824 190.192 30.6913C189.88 30.2324 189.571 29.8884 189.505 29.9266C187.534 31.0843 185.193 31.5416 183.722 31.0563C181.545 30.3377 179.484 25.9109 181.57 26.4345C181.942 26.5279 182.149 26.5022 182.068 26.3724C181.993 26.2507 182.138 26.1511 182.389 26.1511C182.641 26.1511 182.848 26.235 182.848 26.3377C182.848 26.4404 183.677 26.517 184.69 26.508C185.941 26.4965 186.38 26.4254 186.057 26.2868C185.659 26.1156 185.707 26.0797 186.355 26.0657C186.78 26.0567 187.127 26.156 187.127 26.2868C187.127 26.4176 187.555 26.5246 188.079 26.5246H189.03V24.6224H180.647L180.796 23.6911C180.899 23.0479 180.853 22.7269 180.648 22.6537C180.485 22.5952 180.437 22.4558 180.542 22.3436C180.647 22.2314 180.82 22.2797 180.926 22.4509C181.065 22.6763 181.266 22.5229 181.653 21.8966C181.948 21.4203 182.247 21.0891 182.318 21.1602C182.389 21.2313 182.584 21.1764 182.75 21.038C182.917 20.8996 183.711 20.6935 184.514 20.5801C185.517 20.4383 186.11 20.2182 186.405 19.8777C186.74 19.4918 186.863 19.4554 186.962 19.7136C187.04 19.916 186.844 20.1575 186.46 20.3325C185.874 20.5996 185.861 20.6369 186.274 20.868C186.617 21.0599 186.767 21.0283 186.935 20.7294C187.192 20.2688 187.603 20.2177 187.603 20.6464C187.603 21.0176 188.446 21.7692 188.862 21.7692C189.407 21.7692 189.981 23.0993 189.981 24.3618C189.981 25.0283 189.874 25.5735 189.743 25.5735C189.612 25.5735 189.505 25.7875 189.505 26.0491C189.505 26.3422 189.665 26.5258 189.921 26.5279C190.15 26.5296 190.578 26.5957 190.872 26.6744C191.376 26.8094 191.407 26.7464 191.407 25.613ZM188.07 23.6421C187.762 22.5676 187.208 21.8112 186.342 21.2832C184.401 20.0998 181.481 21.4073 181.031 23.6621L180.886 24.3846H188.283L188.07 23.6421ZM178.686 30.3289C178.748 30.3289 178.601 29.8206 178.36 29.1995C177.688 27.4707 177.604 27.3071 177.727 27.965C177.862 28.6907 178.527 30.3289 178.686 30.3289Z" fill="white"/>
  <path fill-rule="evenodd" clip-rule="evenodd" d="M161.462 31.3946C161.141 31.4966 160.972 32.983 160.907 33.595L162.221 33.4811L164.064 33.4V18.4404H160.959L160.98 24.884C161.001 31.2453 161.007 31.3224 161.462 30.9103C161.977 30.4443 162.076 29.8534 161.638 29.8534C161.416 29.8534 161.416 29.7899 161.638 29.5681C161.978 29.2281 162.023 28.5747 161.693 28.7791C161.414 28.9515 161.124 27.9229 161.28 27.3161C161.342 27.0769 161.407 27.2557 161.424 27.7135C161.448 28.3438 161.511 28.4591 161.686 28.189C162.054 27.6191 161.976 26.5246 161.567 26.5246C161.369 26.5246 161.21 26.3132 161.21 26.0491C161.21 25.7875 161.317 25.5735 161.448 25.5735C161.584 25.5735 161.686 24.8602 161.686 23.9091C161.686 22.588 161.76 22.2447 162.043 22.2447C162.28 22.2447 162.399 22.4825 162.399 22.958C162.399 23.3503 162.506 23.6713 162.637 23.6713C162.785 23.6713 162.875 25.0188 162.875 27.2379C162.875 30.6459 162.854 30.8045 162.399 30.8045C162.138 30.8045 161.924 30.9043 161.924 31.0263C161.924 31.1483 161.716 31.314 161.462 31.3946ZM162.28 32.7067C162.084 32.7067 161.924 32.5997 161.924 32.4689C161.924 32.3381 162.084 32.2311 162.28 32.2311C162.476 32.2311 162.637 32.3381 162.637 32.4689C162.637 32.5997 162.476 32.7067 162.28 32.7067Z" fill="white"/>
  <path d="M160.907 33.595C160.972 32.983 161.141 31.4966 161.462 31.3946C161.716 31.314 161.924 31.1483 161.924 31.0263C161.924 30.9043 162.138 30.8045 162.399 30.8045C162.854 30.8045 162.875 30.6459 162.875 27.2379C162.875 25.0188 162.785 23.6713 162.637 23.6713C162.506 23.6713 162.399 23.3503 162.399 22.958C162.399 22.4825 162.28 22.2447 162.043 22.2447C161.76 22.2447 161.686 22.588 161.686 23.9091C161.686 24.8602 161.584 25.5735 161.448 25.5735C161.317 25.5735 161.21 25.7875 161.21 26.0491C161.21 26.3132 161.369 26.5246 161.567 26.5246C161.976 26.5246 162.054 27.6191 161.686 28.189C161.511 28.4591 161.448 28.3438 161.424 27.7135C161.407 27.2557 161.342 27.0769 161.28 27.3161C161.124 27.9229 161.414 28.9515 161.693 28.7791C162.023 28.5747 161.978 29.2281 161.638 29.5681C161.416 29.7899 161.416 29.8534 161.638 29.8534C162.076 29.8534 161.977 30.4443 161.462 30.9103C161.007 31.3224 161.001 31.2453 160.98 24.884L160.959 18.4404H164.064V33.4L162.221 33.4811L160.907 33.595C160.907 33.6006 160.906 33.6056 160.906 33.61H162.34L164.301 33.6578V18.2026H160.735L160.775 25.7518C160.794 29.4606 160.844 33.1879 160.891 33.5964L160.907 33.595Z" fill="white"/>
  <path d="M178.36 29.1995C178.601 29.8206 178.748 30.3289 178.686 30.3289C178.527 30.3289 177.862 28.6907 177.727 27.965C177.604 27.3071 177.688 27.4707 178.36 29.1995Z" fill="white"/>
  <path fill-rule="evenodd" clip-rule="evenodd" d="M43.0377 33.6578V11.545H46.8708L46.8408 15.4088C46.8244 17.534 46.818 19.4549 46.8266 19.678C46.8394 20.0127 46.9455 19.9797 47.4379 19.4873C49.4773 17.4479 53.2436 17.4629 55.3024 19.5189C56.6822 20.8965 56.8285 21.7259 56.8285 28.1754V33.6578H53.0241L53.0227 28.8429C53.022 26.1948 52.9109 23.63 52.7759 23.1432C52.4392 21.9318 51.7784 21.5314 50.1145 21.5314C48.8781 21.5314 48.6465 21.6146 47.849 22.3448L46.9609 23.1585L46.8164 33.6578H43.0377ZM59.1403 16.6773C59.6289 14.3473 60.9995 12.8886 63.5624 11.9703C65.68 11.2116 70.2136 11.8186 71.8937 13.0855C72.3214 13.4081 72.3155 13.4726 71.7108 15.0547L71.086 16.6904L69.7074 16.0072C66.301 14.3188 63.0105 15.1886 63.0105 17.7774C63.0105 18.9596 63.8346 19.8439 65.5071 20.4562C70.1717 22.1639 71.6069 23.0902 72.5243 24.985C73.6209 27.2503 72.9408 30.4768 71.0203 32.1208C70.4937 32.5716 69.4656 33.1653 68.7358 33.4402C66.229 34.3839 61.4869 33.7809 59.4846 32.2637L58.9308 31.844L59.6948 30.1354C60.1149 29.1957 60.5382 28.4268 60.6354 28.4268C60.7327 28.4268 60.9524 28.5956 61.1238 28.802C61.6512 29.4375 63.7001 30.3484 64.9296 30.4942C66.2495 30.6504 67.9048 30.1442 68.6058 29.3695C68.8661 29.0818 69.0368 28.4983 69.0509 27.8483C69.0823 26.3995 68.2582 25.5833 65.7737 24.6015C62.768 23.4141 60.6525 22.2388 60.0144 21.4023C59.1719 20.2976 58.8013 18.2939 59.1403 16.6773ZM2.44385 18.2026L2.11215 13.6849H6.18305V18.2026H10.2252V21.5342L6.18305 21.2235V29.1767L6.87805 29.8717C7.60183 30.5955 8.77951 30.8007 9.51185 30.3306C9.80621 30.1416 9.93485 30.3812 10.2478 31.7014L10.6272 33.3011L9.77221 33.614C9.2572 33.8025 8.20197 33.8972 7.11678 33.8518C5.61453 33.789 5.14826 33.6656 4.30417 33.1071C2.59745 31.9774 2.39011 31.2087 2.38393 25.9896L2.3787 21.5314H0.000976562V18.2026H2.44385ZM129.619 18.2026L129.468 13.684L133.391 13.6849V18.2026H137.433V21.2936H133.36L133.51 29.4202L134.21 30.022C134.822 30.5482 135.065 30.6076 136.145 30.4963L137.379 30.3689L137.536 31.3594C137.623 31.9042 137.75 32.5773 137.82 32.8553C137.986 33.5256 136.946 33.8955 134.893 33.8955C132.593 33.8955 131.018 33.075 130.103 31.3989C129.79 30.8264 129.697 29.783 129.628 26.1085L129.543 21.5314H127.209V18.2026H129.619ZM153.944 16.241C154 15.8158 154.052 15.3881 154.061 15.2899C154.07 15.1917 154.131 15.1115 154.196 15.1115C154.261 15.1115 154.315 15.5395 154.315 16.0626C154.315 16.5857 154.209 17.0137 154.079 17.0137C153.949 17.0137 153.889 16.6661 153.944 16.241ZM12.0798 22.3636C12.975 20.4165 14.8115 18.8194 16.8828 18.1871C17.9252 17.869 20.1174 17.952 21.3722 18.3574C24.2694 19.293 26.1559 22.3905 26.1559 26.2117V27.0001H20.6871C16.4679 27.0001 15.2196 27.0681 15.2236 27.2974C15.2348 27.9315 16.1405 29.5583 16.7489 30.037C18.2956 31.2536 20.2396 31.3119 22.4932 30.2093L23.8307 29.555L24.4021 30.2391C25.5022 31.5566 25.5168 31.675 24.6584 32.3296C21.5274 34.7177 16.2156 34.4229 13.6263 31.7173C13.2083 31.2807 12.5663 30.2814 12.1996 29.4967C11.6161 28.248 11.5329 27.7886 11.5332 25.8113C11.5332 23.9583 11.6314 23.3389 12.0798 22.3636ZM28.1624 23.2393C28.9323 20.9213 30.6293 19.1872 32.8924 18.4049C35.2775 17.5808 38.4073 18.048 40.3309 19.5153L41.1412 20.1333L39.1454 22.6886L38.1579 22.1101C37.014 21.4398 35.0861 21.3255 34.0499 21.8669C33.188 22.3172 32.1874 23.4017 31.8776 24.2218C31.257 25.8638 31.8289 28.3942 33.0793 29.5403C34.3809 30.7334 36.596 30.9201 38.3552 29.9844L39.4502 29.4024L40.9767 32.0704L40.3347 32.5821C38.5795 33.9818 35.1016 34.4198 32.5895 33.5579C31.0174 33.0182 29.2086 31.3098 28.4751 29.6715C27.7761 28.1098 27.6189 24.8761 28.1624 23.2393ZM79.3412 19.6589C79.6888 19.2174 80.41 18.6582 80.9433 18.4159C82.4082 17.7506 84.498 17.8181 86.0278 18.5804C86.7073 18.9192 87.2666 19.2668 87.2709 19.3532C87.2749 19.4397 87.4287 19.7089 87.6125 19.9516C87.9297 20.3703 87.9849 20.3497 88.6861 19.551C89.7396 18.3509 91.1085 17.8909 93.297 18.0014C94.8109 18.0777 95.2324 18.1988 96.0922 18.803C96.7033 19.2324 97.3457 19.9828 97.7122 20.6947C98.3073 21.8507 98.3213 21.9939 98.4031 27.7662L98.4866 33.6578H94.6675L94.5873 28.4862C94.5003 22.8615 94.375 22.254 93.1731 21.6324C92.2158 21.1374 91.0141 21.2168 90.0956 21.8357C88.7626 22.734 88.6973 23.05 88.6935 28.6051L88.6899 33.6578H84.9181L84.8425 28.3248C84.7716 23.347 84.7334 22.9468 84.2683 22.321C83.2406 20.9379 80.662 21.068 79.5573 22.5588C79.0946 23.1827 79.0549 23.5919 78.984 28.4436L78.908 33.6578H75.1369V18.2026H78.7035L78.7087 20.4614L79.3412 19.6589ZM101.888 21.3516C101.69 19.4942 101.797 19.347 103.934 18.5535C105.028 18.1474 105.966 17.9862 107.287 17.9772C110.342 17.9565 112.439 18.9435 113.48 20.8913C113.984 21.8338 114.017 22.2086 114.087 27.7729L114.162 33.6578H110.565V31.6624L109.792 32.4102C108.743 33.4257 107.513 33.8955 105.904 33.8955C104.043 33.8955 102.787 33.4668 101.752 32.4777C100.13 30.9269 99.9703 28.0421 101.411 26.3294C102.369 25.1907 104.078 24.6139 107.186 24.3794C108.699 24.2653 110.042 24.2363 110.169 24.3147C110.677 24.6288 110.115 22.3997 109.541 21.8257C108.399 20.6835 105.508 20.8138 103.365 22.1042L102.054 22.8941L101.888 21.3516ZM121.427 19.6589C121.774 19.2174 122.496 18.6582 123.029 18.4159C123.562 18.1736 124.507 17.9729 125.128 17.97L126.258 17.9648V22.0069L124.772 22.0079C123.025 22.0088 121.988 22.5257 121.336 23.7203C120.975 24.3806 120.896 25.2218 120.83 29.0806L120.753 33.6578H116.985V18.2026H120.789L120.794 20.4614L121.427 19.6589ZM171.076 24.6395C171.066 24.7352 171.04 24.6741 171.078 24.4653C171.077 24.4784 171.077 24.4911 171.078 24.5035L171.076 24.6395ZM171.078 24.5035C171.079 24.5369 171.08 24.5656 171.079 24.5897L171.078 24.5035ZM160.735 33.61L160.891 33.5964L160.891 33.6009C160.892 33.6041 160.892 33.6072 160.893 33.61H160.735ZM160.893 33.61H160.906C160.901 33.6417 160.897 33.6407 160.893 33.61ZM22.3515 24.0009C22.3515 23.2533 21.3322 21.8184 20.4484 21.3217C19.013 20.5149 17.388 20.791 16.2448 22.0362C15.7527 22.5719 15.2184 23.6787 15.2184 24.1623C15.2184 24.2903 16.7313 24.3846 18.785 24.3846C21.9086 24.3846 22.3515 24.3371 22.3515 24.0009ZM179.281 22.2447C179.15 22.2447 179.043 22.1377 179.043 22.0069C179.043 21.8762 179.15 21.7692 179.281 21.7692C179.412 21.7692 179.519 21.8762 179.519 22.0069C179.519 22.1377 179.412 22.2447 179.281 22.2447ZM141.237 29.3779C141.095 29.3779 141 28.4268 141 27.0001V24.6224H141.713C142.268 24.6224 142.426 24.728 142.426 25.098C142.426 25.3595 142.319 25.5735 142.189 25.5735C142.056 25.5735 141.951 26.2076 141.951 27.0001C141.951 27.7926 142.056 28.4268 142.189 28.4268C142.319 28.4268 142.426 28.6408 142.426 28.9023C142.426 29.1639 142.319 29.3779 142.189 29.3779C142.056 29.3779 141.951 30.012 141.951 30.8045C141.951 32.0725 141.898 32.2311 141.475 32.2311C141.214 32.2311 141 32.1241 141 31.9933C141 31.8626 141.107 31.7556 141.237 31.7556C141.368 31.7556 141.475 31.2206 141.475 30.5667C141.475 29.9128 141.368 29.3779 141.237 29.3779ZM107.296 30.9165C109.1 30.5351 110.119 29.463 110.398 27.654L110.535 26.7624L108.707 26.7728C105.877 26.789 104.145 27.6321 104.145 28.9946C104.145 30.2462 105.773 31.2387 107.296 30.9165ZM180.389 28.2484C180.324 28.412 180.27 28.2782 180.27 27.9512C180.27 27.6243 180.324 27.4907 180.389 27.654C180.456 27.8176 180.456 28.0851 180.389 28.2484ZM154.479 31.6961C154.419 31.9249 154.37 31.7377 154.37 31.28C154.37 30.8223 154.419 30.6352 154.479 30.8639C154.539 31.0927 154.539 31.4674 154.479 31.6961ZM162.28 32.7067C162.084 32.7067 161.924 32.5997 161.924 32.4689C161.924 32.3381 162.084 32.2311 162.28 32.2311C162.476 32.2311 162.637 32.3381 162.637 32.4689C162.637 32.5997 162.476 32.7067 162.28 32.7067Z" fill="white"/>
  <path fill-rule="evenodd" clip-rule="evenodd" d="M171.078 24.4653C171.04 24.6741 171.066 24.7352 171.076 24.6395L171.078 24.5035C171.077 24.4911 171.077 24.4784 171.078 24.4653Z" fill="white"/>
  <defs>
    <linearGradient id="paint0_linear_2615_2872" x1="47.5117" y1="5.75297" x2="143.38" y2="5.75297" gradientUnits="userSpaceOnUse">
      <stop stop-color="#5245E5"/>
      <stop offset="1" stop-color="#9134EA"/>
    </linearGradient>
  </defs>
</svg>