<svg width="181" height="32" viewBox="0 0 181 32" fill="none" xmlns="http://www.w3.org/2000/svg">
<path fill-rule="evenodd" clip-rule="evenodd" d="M56.5185 5.23826C65.8362 2.04037 71.5754 0.867287 81.3495 0.161692C85.8198 -0.160783 99.4759 0.0301058 102.721 0.460669C113.043 1.83024 121.064 3.87048 128.344 6.97864C131.822 8.46323 134.946 10.0286 134.946 10.2869C134.946 10.7568 129.885 9.83727 122.267 7.98321C111.314 5.3177 103.178 4.21265 93.0982 4.02199C83.2138 3.83513 75.5644 4.32365 67.5867 5.65182C62.2899 6.53353 59.6669 7.17602 48.3412 10.3656C46.4522 10.8976 44.7843 10.9857 44.7183 10.5567C44.6151 9.88651 49.8535 7.52557 56.5185 5.23826Z" fill="url(#paint0_linear_2505_8218)"/>
<path d="M161.727 18.5019C162.054 18.0863 162.732 17.56 163.234 17.332C163.737 17.1039 164.626 16.915 165.21 16.9124L166.273 16.9074V20.7118L164.875 20.7127C163.231 20.7136 162.255 21.2001 161.641 22.3244C161.301 22.9458 161.227 23.7376 161.165 27.3694L161.092 31.6773H157.546V17.1312H161.126L161.131 19.2572L161.727 18.5019Z" fill="black"/>
<path d="M154.86 12.8793C154.86 13.9916 153.959 14.8934 152.846 14.8934C151.734 14.8934 150.832 13.9916 150.832 12.8793C150.832 11.767 151.734 10.8652 152.846 10.8652C153.959 10.8652 154.86 11.767 154.86 12.8793Z" fill="black"/>
<path fill-rule="evenodd" clip-rule="evenodd" d="M146.402 30.6267C146.4 30.6334 146.399 30.6399 146.397 30.6461C146.391 30.6703 146.386 30.6908 146.382 30.707L146.397 30.6461L146.402 30.6267Z" fill="black"/>
<path fill-rule="evenodd" clip-rule="evenodd" d="M135.167 20.0405V11.0891H132.034V31.4535H135.167V26.9848C135.167 22.8302 135.195 22.5249 135.559 22.6422C135.877 22.7445 135.89 22.725 135.627 22.5388C135.415 22.3891 135.163 22.3844 134.9 22.5256C134.631 22.6691 134.496 22.6639 134.496 22.5099C134.496 22.3826 134.093 22.2783 133.601 22.2783C132.855 22.2783 132.706 22.2038 132.706 21.8308C132.706 21.5846 132.605 21.3832 132.482 21.3832C132.359 21.3832 132.258 20.9804 132.258 20.488C132.258 19.9957 132.359 19.5929 132.482 19.5929C132.605 19.5929 132.706 19.1901 132.706 18.6978C132.706 17.9519 132.78 17.8026 133.153 17.8026C133.452 17.8026 133.601 17.6534 133.601 17.3551C133.601 17.1089 133.702 16.9075 133.825 16.9075C133.948 16.9075 134.048 17.4531 134.048 18.1199C134.048 19.434 134.215 20.1022 134.499 19.927C134.597 19.8659 134.622 20.0291 134.554 20.2893C134.448 20.6957 134.501 20.7403 134.931 20.604C135.301 20.4865 135.516 20.5668 135.759 20.9141C136.129 21.4423 137.513 21.5768 137.705 21.1035C137.779 20.9222 137.884 20.9025 138.004 21.0475C138.105 21.1706 139.327 21.2849 140.717 21.3015C143.245 21.3317 143.831 21.4555 143.224 21.8308C142.726 22.1382 143.113 22.3383 143.879 22.17C144.511 22.031 144.86 21.607 144.342 21.607C144.219 21.607 144.119 21.5094 144.119 21.3901C144.119 21.2711 144.247 21.2227 144.404 21.2829C144.621 21.3662 144.705 20.8669 144.753 19.206C144.788 18.0034 144.912 16.9858 145.027 16.9448C145.143 16.9037 145.238 16.6772 145.238 16.4413C145.238 16.2055 145.338 16.0123 145.461 16.0123C145.585 16.0123 145.685 15.6095 145.685 15.1172C145.685 14.3856 145.763 14.2221 146.112 14.2221C146.474 14.2221 146.551 14.4188 146.615 15.5088C146.726 17.3709 146.63 29.693 146.5 30.2227C146.484 30.2917 146.467 30.3597 146.451 30.4227L146.437 30.4831C146.424 30.5372 146.412 30.5861 146.402 30.6267L146.397 30.6461L146.382 30.707L146.374 30.7421C146.364 30.7817 146.206 30.6631 146.021 30.4785C145.836 30.2939 145.685 29.7832 145.685 29.3434C145.685 28.9039 145.585 28.5443 145.461 28.5443C145.338 28.5443 145.238 27.9844 145.238 27.3003C145.238 26.528 145.153 26.1086 145.014 26.1946C144.887 26.2731 144.79 26.0849 144.79 25.7602C144.79 25.4453 144.891 25.1875 145.014 25.1875C145.137 25.1875 145.236 24.8604 145.234 24.4602C145.232 23.9084 145.179 23.8139 145.014 24.0686C144.855 24.3146 144.796 24.1496 144.793 23.4532L144.79 22.5021L141.713 22.4849C140.021 22.4755 138.46 22.4341 138.244 22.3929C138.029 22.3517 137.853 22.4097 137.853 22.5218C137.853 22.6357 139.338 22.7259 141.21 22.7259H144.566V31.4535H147.699V11.0891H144.566V20.0405H135.167ZM144.889 15.285C144.941 14.8849 144.99 14.4823 144.999 14.3899C145.007 14.2975 145.064 14.2221 145.126 14.2221C145.187 14.2221 145.238 14.6249 145.238 15.1172C145.238 15.6095 145.138 16.0123 145.016 16.0123C144.894 16.0123 144.837 15.6852 144.889 15.285ZM133.825 15.9004C133.702 15.8244 133.601 15.6171 133.601 15.4397C133.601 15.2622 133.702 15.1172 133.825 15.1172C133.948 15.1172 134.048 15.3246 134.048 15.578C134.048 15.8313 133.948 15.9765 133.825 15.9004ZM132.929 27.6492C132.795 27.6492 132.706 26.754 132.706 25.4113V23.1735H133.377C133.899 23.1735 134.048 23.2728 134.048 23.621C134.048 23.8672 133.948 24.0686 133.825 24.0686C133.7 24.0686 133.601 24.6654 133.601 25.4113C133.601 26.1572 133.7 26.754 133.825 26.754C133.948 26.754 134.048 26.9554 134.048 27.2016C134.048 27.4478 133.948 27.6492 133.825 27.6492C133.7 27.6492 133.601 28.246 133.601 28.9919C133.601 30.1853 133.551 30.3346 133.153 30.3346C132.907 30.3346 132.706 30.2339 132.706 30.1108C132.706 29.9877 132.806 29.887 132.929 29.887C133.053 29.887 133.153 29.3835 133.153 28.7681C133.153 28.1527 133.053 27.6492 132.929 27.6492ZM145.392 29.8311C145.336 30.0464 145.29 29.8702 145.29 29.4395C145.29 29.0087 145.336 28.8326 145.392 29.0478C145.448 29.2631 145.448 29.6158 145.392 29.8311Z" fill="black"/>
<path fill-rule="evenodd" clip-rule="evenodd" d="M131.811 31.6773H135.391V22.9497H144.342V31.6773H147.923V10.8653H144.342V19.8167H135.391V10.8653H131.811V31.6773ZM147.699 31.4535H144.566V22.7259H141.21C139.338 22.7259 137.853 22.6357 137.853 22.5218C137.853 22.4097 138.029 22.3517 138.244 22.3929C138.46 22.4341 140.021 22.4755 141.713 22.4849L144.79 22.5021L144.793 23.4532C144.796 24.1496 144.855 24.3146 145.014 24.0686C145.179 23.8139 145.232 23.9084 145.234 24.4602C145.236 24.8604 145.137 25.1875 145.014 25.1875C144.891 25.1875 144.79 25.4453 144.79 25.7602C144.79 26.0849 144.887 26.2731 145.014 26.1946C145.153 26.1086 145.238 26.528 145.238 27.3003C145.238 27.9844 145.338 28.5443 145.461 28.5443C145.585 28.5443 145.685 28.9039 145.685 29.3434C145.685 29.7832 145.836 30.2939 146.021 30.4785C146.206 30.6631 146.364 30.7817 146.374 30.7421L146.382 30.707L146.397 30.6461L146.402 30.6267C146.415 30.5715 146.432 30.5009 146.451 30.4227L146.437 30.4831C146.424 30.5372 146.412 30.5861 146.402 30.6267L146.397 30.6461L146.382 30.707L146.374 30.7421C146.364 30.7817 146.206 30.6631 146.021 30.4785C145.836 30.2939 145.685 29.7832 145.685 29.3434C145.685 28.9039 145.585 28.5443 145.461 28.5443C145.338 28.5443 145.238 27.9844 145.238 27.3003C145.238 26.528 145.153 26.1086 145.014 26.1946C144.887 26.2731 144.79 26.0849 144.79 25.7602C144.79 25.4453 144.891 25.1875 145.014 25.1875C145.137 25.1875 145.236 24.8604 145.234 24.4602C145.232 23.9084 145.179 23.8139 145.014 24.0686C144.855 24.3146 144.796 24.1496 144.793 23.4532L144.79 22.5021L141.713 22.4849C140.021 22.4755 138.46 22.4341 138.244 22.3929C138.029 22.3517 137.853 22.4097 137.853 22.5218C137.853 22.6357 139.338 22.7259 141.21 22.7259H144.566V31.4535H147.699ZM144.889 15.285C144.941 14.8849 144.99 14.4823 144.999 14.3899C145.007 14.2975 145.064 14.2221 145.126 14.2221C145.187 14.2221 145.238 14.6249 145.238 15.1172C145.238 15.6095 145.138 16.0123 145.016 16.0123C144.894 16.0123 144.837 15.6852 144.889 15.285ZM133.825 15.9004C133.702 15.8244 133.601 15.6171 133.601 15.4397C133.601 15.2622 133.702 15.1172 133.825 15.1172C133.948 15.1172 134.048 15.3246 134.048 15.578C134.048 15.8313 133.948 15.9765 133.825 15.9004ZM141.265 22.1208C141.73 22.1924 142.105 22.1566 142.105 22.0404C142.105 21.9252 141.685 21.8308 141.172 21.8308C140.068 21.8308 140.103 21.9413 141.265 22.1208ZM136.888 22.5281C136.531 22.5133 136.32 22.4054 136.398 22.2783C136.474 22.1552 136.486 22.0545 136.425 22.0545C136.363 22.0545 136.25 22.1559 136.173 22.2799C135.998 22.5639 136.577 22.7975 137.112 22.659C137.372 22.5916 137.291 22.5446 136.888 22.5281ZM132.929 27.6492C132.795 27.6492 132.706 26.754 132.706 25.4113V23.1735H133.377C133.899 23.1735 134.048 23.2728 134.048 23.621C134.048 23.8672 133.948 24.0686 133.825 24.0686C133.7 24.0686 133.601 24.6654 133.601 25.4113C133.601 26.1572 133.7 26.754 133.825 26.754C133.948 26.754 134.048 26.9554 134.048 27.2016C134.048 27.4478 133.948 27.6492 133.825 27.6492C133.7 27.6492 133.601 28.246 133.601 28.9919C133.601 30.1853 133.551 30.3346 133.153 30.3346C132.907 30.3346 132.706 30.2339 132.706 30.1108C132.706 29.9877 132.806 29.887 132.929 29.887C133.053 29.887 133.153 29.3835 133.153 28.7681C133.153 28.1527 133.053 27.6492 132.929 27.6492ZM145.392 29.8311C145.336 30.0464 145.29 29.8702 145.29 29.4395C145.29 29.0087 145.336 28.8326 145.392 29.0478C145.448 29.2631 145.448 29.6158 145.392 29.8311Z" fill="black"/>
<path d="M136.398 22.2783C136.32 22.4054 136.531 22.5133 136.888 22.5281C137.291 22.5446 137.372 22.5916 137.112 22.659C136.577 22.7975 135.998 22.5639 136.173 22.2799C136.25 22.1559 136.363 22.0545 136.425 22.0545C136.486 22.0545 136.474 22.1552 136.398 22.2783Z" fill="black"/>
<path d="M142.105 22.0404C142.105 22.1566 141.73 22.1924 141.265 22.1208C140.103 21.9413 140.068 21.8308 141.172 21.8308C141.685 21.8308 142.105 21.9252 142.105 22.0404Z" fill="black"/>
<path d="M133.601 15.4397C133.601 15.6171 133.702 15.8244 133.825 15.9004C133.948 15.9765 134.048 15.8313 134.048 15.578C134.048 15.3246 133.948 15.1172 133.825 15.1172C133.702 15.1172 133.601 15.2622 133.601 15.4397Z" fill="black"/>
<path fill-rule="evenodd" clip-rule="evenodd" d="M177.089 17.9778C179.079 19.0885 180.148 21.2301 180.148 24.1058C180.148 25.1725 180.118 25.2318 179.645 25.1047C179.368 25.0307 178.965 24.9684 178.749 24.9669C178.508 24.9649 178.358 24.7921 178.358 24.5162C178.358 24.27 178.459 24.0686 178.582 24.0686C178.705 24.0686 178.805 23.5555 178.805 22.9282C178.805 21.7399 178.265 20.488 177.753 20.488C177.361 20.488 176.568 19.7807 176.568 19.4313C176.568 19.0278 176.181 19.076 175.939 19.5094C175.781 19.7907 175.639 19.8205 175.317 19.6399C174.928 19.4224 174.94 19.3872 175.492 19.1359C175.853 18.9712 176.038 18.7439 175.965 18.5534C175.871 18.3104 175.755 18.3446 175.44 18.7078C175.162 19.0283 174.604 19.2355 173.66 19.3689C172.904 19.4756 172.157 19.6697 172 19.7999C171.843 19.9301 171.66 19.9818 171.593 19.9149C171.526 19.848 171.245 20.1598 170.968 20.608C170.604 21.1974 170.414 21.3418 170.283 21.1296C170.184 20.9685 170.021 20.9231 169.922 21.0287C169.823 21.1343 169.868 21.2655 170.022 21.3205C170.215 21.3895 170.257 21.6916 170.161 22.2969L170.021 23.1735H177.91V24.9638H177.015C176.523 24.9638 176.12 24.863 176.12 24.74C176.12 24.6169 175.793 24.5233 175.393 24.5318C174.783 24.5451 174.738 24.5788 175.113 24.74C175.417 24.8704 175.003 24.9373 173.826 24.9481C172.872 24.9566 172.092 24.8845 172.092 24.7879C172.092 24.6912 171.898 24.6122 171.661 24.6122C171.424 24.6122 171.288 24.7059 171.359 24.8205C171.434 24.9427 171.24 24.9669 170.889 24.8789C168.926 24.3862 170.866 28.5526 172.915 29.2289C174.299 29.6856 176.503 29.2553 178.358 28.1657C178.419 28.1296 178.711 28.4535 179.005 28.8854C179.512 29.6299 179.52 29.6926 179.157 30.0938C178.513 30.8045 176.602 31.4855 174.886 31.6153C173.607 31.712 172.943 31.637 171.728 31.2584C170.195 30.7808 169.781 30.5188 168.752 29.3723C168.305 28.8742 168.275 28.7681 168.584 28.7681C168.79 28.7681 168.959 28.9192 168.959 29.1038C168.959 29.2884 169.034 29.4207 169.127 29.3976C169.219 29.3748 169.981 29.6872 170.819 30.092C172.404 30.8571 173.103 30.9637 171.747 30.2337C171.321 30.0043 170.973 29.6532 170.973 29.4536C170.973 29.2539 170.772 28.9456 170.525 28.7681C170.279 28.5906 170.078 28.3136 170.078 28.1522C170.078 27.9909 169.927 27.8009 169.742 27.7302C169.321 27.5684 169.278 25.6389 169.686 25.1994C169.91 24.9584 169.91 24.9297 169.686 25.0559C169.515 25.1528 169.406 25.0792 169.406 24.8651C169.406 24.6733 169.507 24.5162 169.63 24.5162C169.753 24.5162 169.854 24.3148 169.854 24.0686C169.854 23.707 169.705 23.621 169.078 23.621C168.48 23.621 168.331 23.698 168.43 23.9567C168.512 24.1693 168.427 24.2924 168.2 24.2924C168.002 24.2924 167.84 24.4495 167.84 24.6413C167.84 24.8331 167.739 24.9279 167.616 24.8519C167.493 24.7758 167.392 24.8203 167.392 24.9506C167.392 25.0808 167.499 25.1875 167.629 25.1875C167.76 25.1875 167.804 25.2882 167.728 25.4113C167.652 25.5344 167.489 25.6351 167.366 25.6351C167.243 25.6351 167.2 25.5413 167.271 25.4268C167.342 25.3122 167.297 25.1553 167.172 25.0779C166.728 24.8031 167.132 21.7001 167.691 21.095C167.835 20.9399 167.983 20.6715 168.021 20.4983C168.266 19.3902 170.08 17.9396 171.868 17.4238C173.454 16.9659 175.704 17.2047 177.089 17.9778ZM168.735 20.9356C168.612 20.9356 168.511 20.8349 168.511 20.7118C168.511 20.5887 168.612 20.488 168.735 20.488C168.858 20.488 168.959 20.5887 168.959 20.7118C168.959 20.8349 168.858 20.9356 168.735 20.9356ZM169.778 26.5862C169.716 26.7402 169.666 26.6142 169.666 26.3065C169.666 25.9988 169.716 25.873 169.778 26.0267C169.841 26.1807 169.841 26.4325 169.778 26.5862Z" fill="black"/>
<path fill-rule="evenodd" clip-rule="evenodd" d="M171.857 17.198C169.833 17.7722 168.196 19.1966 167.316 21.148C166.657 22.6104 166.684 25.7043 167.371 27.4748C167.976 29.0355 169.469 30.6363 170.924 31.2832C173.242 32.3147 176.597 32.0114 178.873 30.5647L179.948 29.8817L179.227 28.8773C178.83 28.325 178.482 27.873 178.453 27.873C178.423 27.873 177.891 28.1366 177.27 28.4588C174.496 29.898 171.799 29.2459 170.722 26.8751C170.686 26.7947 170.65 26.7184 170.617 26.646L170.616 26.6434L170.615 26.6416C170.4 26.1789 170.26 25.8748 170.35 25.6774C170.525 25.2988 171.552 25.3127 174.548 25.3532L174.549 25.3532L174.551 25.3533C174.799 25.3566 175.061 25.3601 175.337 25.3637L180.372 25.4277V24.0055C180.372 19.9633 178.047 17.2449 174.388 17.0075C173.515 16.9509 172.445 17.0315 171.857 17.198ZM180.148 24.1058C180.148 21.2301 179.079 19.0885 177.089 17.9778C175.704 17.2047 173.454 16.9659 171.868 17.4238C170.08 17.9396 168.266 19.3902 168.021 20.4983C167.983 20.6715 167.835 20.9399 167.691 21.095C167.132 21.7001 166.728 24.8031 167.172 25.0779C167.297 25.1553 167.342 25.3122 167.271 25.4268C167.2 25.5413 167.243 25.6351 167.366 25.6351C167.489 25.6351 167.652 25.5344 167.728 25.4113C167.804 25.2882 167.76 25.1875 167.629 25.1875C167.499 25.1875 167.392 25.0808 167.392 24.9506C167.392 24.8203 167.493 24.7758 167.616 24.8519C167.739 24.9279 167.84 24.8331 167.84 24.6413C167.84 24.4495 168.002 24.2924 168.2 24.2924C168.427 24.2924 168.512 24.1693 168.43 23.9567C168.331 23.698 168.48 23.621 169.078 23.621C169.705 23.621 169.854 23.707 169.854 24.0686C169.854 24.3148 169.753 24.5162 169.63 24.5162C169.507 24.5162 169.406 24.6733 169.406 24.8651C169.406 25.0792 169.515 25.1528 169.686 25.0559C169.91 24.9297 169.91 24.9584 169.686 25.1994C169.278 25.6389 169.321 27.5684 169.742 27.7302C169.927 27.8009 170.078 27.9909 170.078 28.1522C170.078 28.3136 170.279 28.5906 170.525 28.7681C170.772 28.9456 170.973 29.2539 170.973 29.4536C170.973 29.6532 171.321 30.0043 171.747 30.2337C173.103 30.9637 172.404 30.8571 170.819 30.092C169.981 29.6872 169.219 29.3748 169.127 29.3976C169.034 29.4207 168.959 29.2884 168.959 29.1038C168.959 28.9192 168.79 28.7681 168.584 28.7681C168.275 28.7681 168.305 28.8742 168.752 29.3723C169.781 30.5188 170.195 30.7808 171.728 31.2584C172.943 31.637 173.607 31.712 174.886 31.6153C176.602 31.4855 178.513 30.8045 179.157 30.0938C179.52 29.6926 179.512 29.6299 179.005 28.8854C178.711 28.4535 178.419 28.1296 178.358 28.1657C176.503 29.2553 174.299 29.6856 172.915 29.2289C170.866 28.5526 168.926 24.3862 170.889 24.8789C171.24 24.9669 171.434 24.9427 171.359 24.8205C171.288 24.7059 171.424 24.6122 171.661 24.6122C171.898 24.6122 172.092 24.6912 172.092 24.7879C172.092 24.8845 172.872 24.9566 173.826 24.9481C175.003 24.9373 175.417 24.8704 175.113 24.74C174.738 24.5788 174.783 24.5451 175.393 24.5318C175.793 24.5233 176.12 24.6169 176.12 24.74C176.12 24.863 176.523 24.9638 177.015 24.9638H177.91V23.1735H170.021L170.161 22.2969C170.257 21.6916 170.215 21.3895 170.022 21.3205C169.868 21.2655 169.823 21.1343 169.922 21.0287C170.021 20.9231 170.184 20.9685 170.283 21.1296C170.414 21.3418 170.604 21.1974 170.968 20.608C171.245 20.1598 171.526 19.848 171.593 19.9149C171.66 19.9818 171.843 19.9301 172 19.7999C172.157 19.6697 172.904 19.4756 173.66 19.3689C174.604 19.2355 175.162 19.0283 175.44 18.7078C175.755 18.3446 175.871 18.3104 175.965 18.5534C176.038 18.7439 175.853 18.9712 175.492 19.1359C174.94 19.3872 174.928 19.4224 175.317 19.6399C175.639 19.8205 175.781 19.7907 175.939 19.5094C176.181 19.076 176.568 19.0278 176.568 19.4313C176.568 19.7807 177.361 20.488 177.753 20.488C178.265 20.488 178.805 21.7399 178.805 22.9282C178.805 23.5555 178.705 24.0686 178.582 24.0686C178.459 24.0686 178.358 24.27 178.358 24.5162C178.358 24.7921 178.508 24.9649 178.749 24.9669C178.965 24.9684 179.368 25.0307 179.645 25.1047C180.118 25.2318 180.148 25.1725 180.148 24.1058ZM177.007 22.2508C176.717 21.2395 176.196 20.5277 175.381 20.0306C173.554 18.9168 170.806 20.1474 170.382 22.2696L170.246 22.9497H177.208L177.007 22.2508ZM168.175 28.5443C168.233 28.5443 168.095 28.0659 167.868 27.4813C167.236 25.8542 167.157 25.7002 167.273 26.3194C167.4 27.0024 168.026 28.5443 168.175 28.5443Z" fill="black"/>
<path fill-rule="evenodd" clip-rule="evenodd" d="M151.964 29.5473C151.662 29.6433 151.503 31.0422 151.442 31.6182L152.678 31.511L154.413 31.4347V17.3551H151.491L151.511 23.4196C151.53 29.4068 151.536 29.4793 151.965 29.0915C152.449 28.6529 152.542 28.0967 152.13 28.0967C151.921 28.0967 151.921 28.037 152.13 27.8282C152.45 27.5082 152.493 26.8932 152.181 27.0857C151.919 27.2479 151.646 26.2798 151.793 25.7087C151.852 25.4836 151.912 25.6519 151.929 26.0827C151.951 26.6759 152.011 26.7845 152.175 26.5302C152.522 25.9938 152.448 24.9638 152.063 24.9638C151.877 24.9638 151.727 24.7648 151.727 24.5162C151.727 24.27 151.828 24.0686 151.951 24.0686C152.079 24.0686 152.175 23.3973 152.175 22.5021C152.175 21.2588 152.244 20.9356 152.511 20.9356C152.734 20.9356 152.846 21.1594 152.846 21.607C152.846 21.9762 152.947 22.2783 153.07 22.2783C153.209 22.2783 153.294 23.5465 153.294 25.6351C153.294 28.8426 153.274 28.9919 152.846 28.9919C152.6 28.9919 152.399 29.0859 152.399 29.2007C152.399 29.3155 152.203 29.4715 151.964 29.5473ZM152.734 30.7822C152.55 30.7822 152.399 30.6815 152.399 30.5584C152.399 30.4353 152.55 30.3346 152.734 30.3346C152.919 30.3346 153.07 30.4353 153.07 30.5584C153.07 30.6815 152.919 30.7822 152.734 30.7822Z" fill="black"/>
<path d="M151.442 31.6182C151.503 31.0422 151.662 29.6433 151.964 29.5473C152.203 29.4715 152.399 29.3155 152.399 29.2007C152.399 29.0859 152.6 28.9919 152.846 28.9919C153.274 28.9919 153.294 28.8426 153.294 25.6351C153.294 23.5465 153.209 22.2783 153.07 22.2783C152.947 22.2783 152.846 21.9762 152.846 21.607C152.846 21.1594 152.734 20.9356 152.511 20.9356C152.244 20.9356 152.175 21.2588 152.175 22.5021C152.175 23.3973 152.079 24.0686 151.951 24.0686C151.828 24.0686 151.727 24.27 151.727 24.5162C151.727 24.7648 151.877 24.9638 152.063 24.9638C152.448 24.9638 152.522 25.9938 152.175 26.5302C152.011 26.7845 151.951 26.6759 151.929 26.0827C151.912 25.6519 151.852 25.4836 151.793 25.7087C151.646 26.2798 151.919 27.2479 152.181 27.0857C152.493 26.8932 152.45 27.5082 152.13 27.8282C151.921 28.037 151.921 28.0967 152.13 28.0967C152.542 28.0967 152.449 28.6529 151.965 29.0915C151.536 29.4793 151.53 29.4068 151.511 23.4196L151.491 17.3551H154.413V31.4347L152.678 31.511L151.442 31.6182C151.442 31.6235 151.441 31.6282 151.441 31.6323H152.79L154.637 31.6773V17.1313H151.28L151.317 24.2364C151.336 27.727 151.383 31.2351 151.427 31.6196L151.442 31.6182Z" fill="black"/>
<path d="M167.868 27.4813C168.095 28.0659 168.233 28.5443 168.175 28.5443C168.026 28.5443 167.4 27.0024 167.273 26.3194C167.157 25.7002 167.236 25.8542 167.868 27.4813Z" fill="black"/>
<path fill-rule="evenodd" clip-rule="evenodd" d="M40.5061 31.6773V10.8653H44.1138L44.0856 14.5018C44.0701 16.502 44.0641 18.3099 44.0721 18.5199C44.0842 18.8349 44.184 18.8038 44.6475 18.3404C46.5669 16.421 50.1117 16.4351 52.0494 18.3701C53.348 19.6668 53.4857 20.4473 53.4857 26.5175V31.6773H49.9051L49.9038 27.1457C49.9031 24.6534 49.7986 22.2394 49.6715 21.7813C49.3546 20.6411 48.7327 20.2643 47.1666 20.2643C46.003 20.2643 45.785 20.3426 45.0344 21.0298L44.1986 21.7956L44.0625 31.6773H40.5061ZM55.6615 15.6957C56.1214 13.5028 57.4113 12.1299 59.8235 11.2656C61.8165 10.5515 66.0834 11.1229 67.6647 12.3152C68.0673 12.6189 68.0617 12.6795 67.4926 14.1686L66.9045 15.708L65.607 15.0651C62.401 13.476 59.3041 14.2946 59.3041 16.7311C59.3041 17.8438 60.0797 18.6761 61.6538 19.2523C66.044 20.8595 67.3948 21.7314 68.2582 23.5147C69.2903 25.6467 68.6503 28.6835 66.8427 30.2308C66.3471 30.6551 65.3794 31.2139 64.6926 31.4725C62.3332 32.3608 57.8701 31.7932 55.9856 30.3653L55.4644 29.9703L56.1834 28.3622C56.5788 27.4778 56.9772 26.754 57.0687 26.754C57.1602 26.754 57.367 26.9129 57.5283 27.1072C58.0247 27.7053 59.9531 28.5627 61.1103 28.6998C62.3525 28.8469 63.9105 28.3704 64.5702 27.6413C64.8152 27.3706 64.9759 26.8214 64.9891 26.2096C65.0187 24.846 64.243 24.0778 61.9047 23.1538C59.0758 22.0362 57.0848 20.93 56.4842 20.1427C55.6913 19.103 55.3424 17.2172 55.6615 15.6957ZM2.30015 17.1313L1.98797 12.8793H5.81939V17.1313H9.62374V20.2669L5.81939 19.9745V27.4599L6.47352 28.114C7.15472 28.7952 8.26313 28.9883 8.95239 28.5459C9.22943 28.368 9.3505 28.5935 9.645 29.836L10.0022 31.3416L9.19743 31.6361C8.71271 31.8136 7.71956 31.9027 6.6982 31.8599C5.28432 31.8008 4.84548 31.6847 4.05104 31.159C2.44471 30.0958 2.24957 29.3723 2.24375 24.4602L2.23883 20.2643H0.000976562V17.1313H2.30015ZM121.995 17.1313L121.852 12.8784L125.545 12.8793V17.1313H129.349V20.0405H125.515L125.656 27.689L126.315 28.2554C126.892 28.7506 127.12 28.8066 128.136 28.7019L129.298 28.5819L129.446 29.5142C129.527 30.0269 129.647 30.6604 129.713 30.922C129.87 31.5529 128.89 31.9011 126.959 31.9011C124.793 31.9011 123.311 31.1288 122.45 29.5513C122.156 29.0125 122.067 28.0305 122.003 24.5721L121.923 20.2643H119.726V17.1313H121.995ZM144.889 15.285C144.941 14.8849 144.99 14.4823 144.999 14.3899C145.007 14.2975 145.064 14.2221 145.126 14.2221C145.187 14.2221 145.238 14.6249 145.238 15.1172C145.238 15.6095 145.138 16.0123 145.016 16.0123C144.894 16.0123 144.837 15.6852 144.889 15.285ZM11.3693 21.0475C12.2118 19.2149 13.9403 17.7118 15.8897 17.1167C16.8708 16.8173 18.9341 16.8954 20.115 17.2769C22.8418 18.1575 24.6174 21.0728 24.6174 24.6692V25.4113H19.4703C15.4992 25.4113 14.3244 25.4753 14.3282 25.6911C14.3387 26.2879 15.1911 27.819 15.7637 28.2695C17.2195 29.4146 19.0491 29.4694 21.1702 28.4318L22.429 27.8159L22.9667 28.4597C24.0022 29.6997 24.0158 29.8112 23.208 30.4272C20.2612 32.6749 15.2618 32.3974 12.8248 29.851C12.4314 29.4401 11.8271 28.4996 11.4821 27.7611C10.9329 26.5857 10.8546 26.1534 10.8548 24.2924C10.8548 22.5484 10.9472 21.9655 11.3693 21.0475ZM26.5059 21.8717C27.2305 19.69 28.8277 18.058 30.9576 17.3217C33.2024 16.5461 36.1481 16.9858 37.9585 18.3668L38.7212 18.9484L36.8428 21.3534L35.9134 20.809C34.8367 20.1781 33.0223 20.0705 32.047 20.58C31.2358 21.0039 30.2941 22.0246 30.0025 22.7964C29.4184 24.3419 29.9567 26.7234 31.1335 27.802C32.3585 28.925 34.4433 29.1007 36.0991 28.2201L37.1296 27.6722L38.5663 30.1833L37.9621 30.6649C36.3101 31.9823 33.0368 32.3945 30.6725 31.5833C29.1929 31.0753 27.4905 29.4674 26.8002 27.9255C26.1422 26.4557 25.9943 23.4122 26.5059 21.8717ZM74.6741 18.502C75.0013 18.0864 75.68 17.56 76.182 17.332C77.5607 16.7059 79.5275 16.7694 80.9674 17.4869C81.607 17.8058 82.1333 18.1329 82.1373 18.2142C82.1412 18.2956 82.2859 18.5489 82.4589 18.7774C82.7575 19.1715 82.8094 19.152 83.4693 18.4004C84.4609 17.2709 85.7492 16.8379 87.809 16.9419C89.2338 17.0138 89.6306 17.1277 90.4398 17.6963C91.0149 18.1005 91.6196 18.8067 91.9644 19.4768C92.5246 20.5648 92.5378 20.6995 92.6148 26.1324L92.6933 31.6773H89.0989L89.0234 26.81C88.9415 21.5161 88.8236 20.9443 87.6924 20.3594C86.7914 19.8934 85.6604 19.9682 84.7959 20.5507C83.5414 21.3962 83.4798 21.6936 83.4763 26.9219L83.4729 31.6773H79.923L79.8518 26.658C79.7851 21.9731 79.7491 21.5965 79.3114 21.0075C78.3442 19.7057 75.9172 19.8281 74.8775 21.2312C74.442 21.8185 74.4047 22.2036 74.338 26.7699L74.2664 31.6773H70.7171V17.1313H74.0739L74.0788 19.2572L74.6741 18.502ZM95.895 20.0951C95.7079 18.3469 95.8093 18.2083 97.82 17.4616C98.8496 17.0793 99.7329 16.9276 100.976 16.9191C103.851 16.8996 105.825 17.8286 106.805 19.6618C107.279 20.5489 107.31 20.9016 107.376 26.1386L107.446 31.6773H104.061V29.7993L103.334 30.5031C102.346 31.4589 101.189 31.9011 99.6745 31.9011C97.9225 31.9011 96.7407 31.4976 95.767 30.5667C94.2403 29.1071 94.0897 26.3919 95.4461 24.78C96.3477 23.7083 97.9558 23.1654 100.881 22.9448C102.305 22.8373 103.569 22.81 103.688 22.8839C104.167 23.1795 103.637 21.0815 103.097 20.5413C102.022 19.4662 99.3019 19.5889 97.2851 20.8034L96.0505 21.5468L95.895 20.0951ZM114.284 18.502C114.611 18.0864 115.29 17.56 115.792 17.332C116.294 17.104 117.183 16.9151 117.768 16.9124L118.831 16.9075V20.7118L117.432 20.7127C115.788 20.7136 114.812 21.2001 114.198 22.3244C113.859 22.9459 113.784 23.7376 113.723 27.3694L113.65 31.6773H110.103V17.1313H113.684L113.689 19.2572L114.284 18.502ZM161.013 23.1895C161.004 23.2796 160.979 23.2221 161.014 23.0256C161.014 23.0379 161.014 23.0499 161.014 23.0615L161.013 23.1895ZM161.014 23.0615C161.016 23.093 161.016 23.12 161.016 23.1427L161.014 23.0615ZM151.28 31.6323L151.427 31.6196L151.427 31.6238C151.428 31.6269 151.428 31.6297 151.428 31.6323H151.28ZM151.428 31.6323H151.441C151.437 31.6622 151.432 31.6613 151.428 31.6323ZM21.0368 22.5885C21.0368 21.8849 20.0774 20.5344 19.2456 20.0669C17.8946 19.3076 16.3653 19.5674 15.2893 20.7394C14.8261 21.2435 14.3232 22.2853 14.3232 22.7404C14.3232 22.8608 15.7472 22.9497 17.68 22.9497C20.6199 22.9497 21.0368 22.9049 21.0368 22.5885ZM168.735 20.9356C168.612 20.9356 168.511 20.8349 168.511 20.7118C168.511 20.5887 168.612 20.488 168.735 20.488C168.858 20.488 168.959 20.5887 168.959 20.7118C168.959 20.8349 168.858 20.9356 168.735 20.9356ZM132.929 27.6492C132.795 27.6492 132.706 26.754 132.706 25.4113V23.1735H133.377C133.899 23.1735 134.048 23.2728 134.048 23.621C134.048 23.8672 133.948 24.0686 133.825 24.0686C133.7 24.0686 133.601 24.6654 133.601 25.4113C133.601 26.1572 133.7 26.754 133.825 26.754C133.948 26.754 134.048 26.9554 134.048 27.2016C134.048 27.4478 133.948 27.6492 133.825 27.6492C133.7 27.6492 133.601 28.246 133.601 28.9919C133.601 30.1853 133.551 30.3346 133.153 30.3346C132.907 30.3346 132.706 30.2339 132.706 30.1108C132.706 29.9877 132.806 29.887 132.929 29.887C133.053 29.887 133.153 29.3835 133.153 28.7681C133.153 28.1527 133.053 27.6492 132.929 27.6492ZM100.985 29.0973C102.682 28.7383 103.641 27.7293 103.904 26.0267L104.033 25.1875L102.313 25.1974C99.6485 25.2126 98.0189 26.0061 98.0189 27.2884C98.0189 28.4664 99.5507 29.4005 100.985 29.0973ZM169.778 26.5862C169.716 26.7402 169.666 26.6142 169.666 26.3065C169.666 25.9988 169.716 25.873 169.778 26.0267C169.841 26.1807 169.841 26.4325 169.778 26.5862ZM145.392 29.8311C145.336 30.0464 145.29 29.8702 145.29 29.4395C145.29 29.0087 145.336 28.8326 145.392 29.0478C145.448 29.2631 145.448 29.6158 145.392 29.8311ZM152.734 30.7822C152.55 30.7822 152.399 30.6815 152.399 30.5584C152.399 30.4353 152.55 30.3346 152.734 30.3346C152.919 30.3346 153.07 30.4353 153.07 30.5584C153.07 30.6815 152.919 30.7822 152.734 30.7822Z" fill="black"/>
<path fill-rule="evenodd" clip-rule="evenodd" d="M161.014 23.0256C160.979 23.2221 161.004 23.2796 161.013 23.1895L161.014 23.0615C161.014 23.0499 161.014 23.0379 161.014 23.0256Z" fill="black"/>
<defs>
<linearGradient id="paint0_linear_2505_8218" x1="44.7168" y1="5.41456" x2="134.946" y2="5.41456" gradientUnits="userSpaceOnUse">
<stop stop-color="#5245E5"/>
<stop offset="1" stop-color="#9134EA"/>
</linearGradient>
</defs>
</svg>
